<?xml version="1.0" standalone="no"?>
<!DOCTYPE svg PUBLIC "-//W3C//DTD SVG 20010904//EN"
 "http://www.w3.org/TR/2001/REC-SVG-20010904/DTD/svg10.dtd">
<svg version="1.0" xmlns="http://www.w3.org/2000/svg"
 width="700.000000pt" height="700.000000pt" viewBox="0 0 700.000000 700.000000"
 preserveAspectRatio="xMidYMid meet">
<metadata>
Created by potrace 1.14, written by Peter Selinger 2001-2017
</metadata>
<g transform="translate(0.000000,700.000000) scale(0.100000,-0.100000)"
fill="#000000" stroke="none">
<path d="M3280 6994 c-19 -2 -84 -9 -145 -14 -497 -49 -1012 -222 -1448 -487
-268 -164 -470 -326 -702 -564 -546 -562 -879 -1272 -967 -2064 -17 -155 -17
-575 0 -730 75 -673 332 -1300 748 -1820 114 -143 339 -372 484 -494 537 -451
1164 -718 1885 -803 145 -17 576 -17 730 0 608 68 1179 285 1670 635 294 210
602 518 813 813 350 490 558 1038 634 1669 16 136 16 592 0 730 -86 725 -352
1347 -803 1885 -122 145 -351 370 -494 484 -510 407 -1117 661 -1775 742 -117
15 -553 27 -630 18z m654 -134 c908 -118 1712 -585 2269 -1318 363 -478 582
-1023 664 -1647 23 -181 23 -610 -1 -790 -61 -471 -198 -891 -414 -1270 -414
-727 -1069 -1271 -1852 -1540 -379 -129 -687 -179 -1105 -179 -333 1 -521 23
-825 99 -1261 315 -2239 1344 -2494 2625 -46 232 -60 385 -60 660 0 415 50
723 179 1100 308 899 992 1638 1859 2010 367 157 695 236 1146 274 113 10 483
-4 634 -24z"/>
<path d="M3220 6659 c-762 -76 -1456 -407 -1981 -946 -490 -502 -786 -1112
-886 -1823 -25 -177 -25 -633 0 -810 51 -361 141 -663 291 -975 317 -657 834
-1174 1491 -1491 311 -150 598 -236 970 -291 189 -28 660 -25 855 6 375 58
638 140 965 301 202 100 333 179 498 304 555 416 956 994 1151 1659 40 135 77
310 103 482 25 171 25 649 0 820 -57 382 -143 666 -302 990 -133 271 -287 502
-478 716 -513 575 -1195 937 -1967 1044 -138 19 -572 28 -710 14z m555 -109
c872 -74 1668 -515 2196 -1216 856 -1137 822 -2701 -81 -3803 -470 -573 -1140
-959 -1872 -1080 -828 -137 -1668 68 -2339 568 -609 454 -1031 1121 -1179
1861 -45 227 -55 333 -55 605 0 272 10 378 55 605 52 261 128 484 249 735 159
328 326 562 595 831 364 364 754 603 1235 758 379 122 797 169 1196 136z"/>
<path d="M3210 6326 c-350 -45 -634 -129 -935 -276 -290 -142 -510 -298 -744
-525 -489 -476 -777 -1066 -857 -1751 -22 -191 -15 -564 15 -749 82 -508 284
-967 597 -1360 788 -987 2132 -1346 3308 -883 739 291 1333 885 1624 1624 463
1176 104 2520 -883 3308 -398 317 -864 520 -1385 601 -143 23 -595 29 -740 11z
m720 -121 c530 -83 995 -291 1385 -618 544 -457 885 -1089 976 -1812 16 -128
17 -501 0 -630 -50 -400 -175 -768 -376 -1104 -357 -596 -939 -1047 -1599
-1237 -274 -79 -482 -108 -776 -108 -295 0 -536 34 -789 110 -457 139 -828
361 -1167 699 -436 435 -697 954 -792 1578 -13 85 -17 177 -17 382 0 281 10
378 56 590 177 806 711 1497 1446 1872 327 167 611 250 1023 297 89 10 530 -3
630 -19z"/>
<path d="M3380 4260 c-93 -11 -144 -26 -235 -70 -371 -179 -514 -621 -323
-994 60 -117 191 -246 308 -304 125 -61 193 -77 335 -77 97 0 134 5 195 24
250 77 423 250 501 501 30 97 33 280 6 380 -95 349 -433 581 -787 540z m292
-143 c233 -90 386 -294 404 -538 27 -365 -290 -682 -655 -655 -243 18 -449
173 -538 404 -31 82 -43 250 -23 341 46 215 226 404 445 466 35 10 89 13 175
11 106 -2 135 -7 192 -29z"/>
<path d="M3308 4031 c-217 -70 -358 -263 -358 -490 0 -141 48 -264 138 -355
87 -89 161 -129 282 -154 308 -64 610 191 610 513 0 65 -37 194 -73 253 -66
110 -173 194 -296 232 -83 26 -223 26 -303 1z m324 -128 c124 -58 207 -169
230 -306 43 -260 -199 -502 -459 -459 -137 23 -247 105 -306 230 -30 62 -32
75 -32 172 0 93 3 112 27 162 31 68 105 149 166 185 71 42 119 53 217 50 77
-2 100 -7 157 -34z"/>
<path d="M3395 3821 c-84 -22 -155 -80 -196 -161 -31 -62 -33 -175 -3 -241 45
-97 136 -159 245 -167 95 -7 159 17 225 82 65 66 89 130 82 225 -11 149 -120
257 -267 267 -31 2 -69 0 -86 -5z m128 -115 c125 -45 158 -207 61 -298 -132
-123 -345 8 -293 181 21 70 98 129 169 130 14 0 42 -6 63 -13z"/>
<path d="M2370 2673 c0 -786 2 -934 13 -918 40 59 657 1095 657 1103 0 10 -79
66 -85 60 -2 -2 -105 -174 -230 -383 -126 -209 -232 -384 -236 -390 -5 -5 -9
293 -9 673 l0 682 76 0 75 0 -3 53 -3 52 -127 3 -128 3 0 -938z"/>
</g>
</svg>
