<svg width="154" height="154" viewBox="0 0 154 154" fill="none" xmlns="http://www.w3.org/2000/svg">
<path fill-rule="evenodd" clip-rule="evenodd" d="M77 153C118.974 153 153 118.974 153 77C153 35.0264 118.974 1 77 1C35.0264 1 1 35.0264 1 77C1 118.974 35.0264 153 77 153ZM77 154C119.526 154 154 119.526 154 77C154 34.4741 119.526 0 77 0C34.4741 0 0 34.4741 0 77C0 119.526 34.4741 154 77 154Z" fill="white"/>
<path fill-rule="evenodd" clip-rule="evenodd" d="M77.0001 146.116C115.172 146.116 146.117 115.172 146.117 77C146.117 38.828 115.172 7.88354 77.0001 7.88354C38.8281 7.88354 7.88367 38.828 7.88367 77C7.88367 115.172 38.8281 146.116 77.0001 146.116ZM77.0001 147.116C115.724 147.116 147.117 115.724 147.117 77C147.117 38.2757 115.724 6.88354 77.0001 6.88354C38.2759 6.88354 6.88367 38.2757 6.88367 77C6.88367 115.724 38.2759 147.116 77.0001 147.116Z" fill="white"/>
<path fill-rule="evenodd" clip-rule="evenodd" d="M77 139.393C111.459 139.393 139.393 111.459 139.393 77C139.393 42.5413 111.459 14.6071 77 14.6071C42.5413 14.6071 14.6071 42.5413 14.6071 77C14.6071 111.459 42.5413 139.393 77 139.393ZM77 140.393C112.011 140.393 140.393 112.011 140.393 77C140.393 41.989 112.011 13.6071 77 13.6071C41.989 13.6071 13.6071 41.989 13.6071 77C13.6071 112.011 41.989 140.393 77 140.393Z" fill="white"/>
<path fill-rule="evenodd" clip-rule="evenodd" d="M66.9187 93.679L53 116.847L52 118.511V116.57V78.21V77.21H53H57.6034C57.6034 77.5454 57.612 77.8788 57.629 78.21H53V114.905L66.0754 93.1409C66.3515 93.3273 66.6327 93.5068 66.9187 93.679Z" fill="#AC0116"/>
<path fill-rule="evenodd" clip-rule="evenodd" d="M77.0001 92.0083C85.289 92.0083 92.0085 85.2889 92.0085 77C92.0085 68.7112 85.289 61.9917 77.0001 61.9917C68.7113 61.9917 61.9918 68.7112 61.9918 77C61.9918 85.2889 68.7113 92.0083 77.0001 92.0083ZM77.0001 93.0083C85.8413 93.0083 93.0085 85.8412 93.0085 77C93.0085 68.1589 85.8413 60.9917 77.0001 60.9917C68.159 60.9917 60.9918 68.1589 60.9918 77C60.9918 85.8412 68.159 93.0083 77.0001 93.0083Z" fill="white"/>
<path fill-rule="evenodd" clip-rule="evenodd" d="M77.0001 92.0083C85.289 92.0083 92.0085 85.2889 92.0085 77C92.0085 68.7112 85.289 61.9917 77.0001 61.9917C68.7113 61.9917 61.9918 68.7112 61.9918 77C61.9918 85.2889 68.7113 92.0083 77.0001 92.0083ZM77.0001 93.0083C85.8413 93.0083 93.0085 85.8412 93.0085 77C93.0085 68.1589 85.8413 60.9917 77.0001 60.9917C68.159 60.9917 60.9918 68.1589 60.9918 77C60.9918 85.8412 68.159 93.0083 77.0001 93.0083Z" fill="white"/>
<path fill-rule="evenodd" clip-rule="evenodd" d="M77.0003 87.366C82.7252 87.366 87.3662 82.725 87.3662 77.0001C87.3662 71.2751 82.7252 66.6342 77.0003 66.6342C71.2753 66.6342 66.6344 71.2751 66.6344 77.0001C66.6344 82.725 71.2753 87.366 77.0003 87.366ZM77.0003 88.366C83.2775 88.366 88.3662 83.2773 88.3662 77.0001C88.3662 70.7228 83.2775 65.6342 77.0003 65.6342C70.7231 65.6342 65.6344 70.7228 65.6344 77.0001C65.6344 83.2773 70.7231 88.366 77.0003 88.366Z" fill="white"/>
<path fill-rule="evenodd" clip-rule="evenodd" d="M77.0001 82.4033C79.9843 82.4033 82.4034 79.9842 82.4034 77C82.4034 74.0158 79.9843 71.5967 77.0001 71.5967C74.0159 71.5967 71.5968 74.0158 71.5968 77C71.5968 79.9842 74.0159 82.4033 77.0001 82.4033ZM77.0001 83.4033C80.5366 83.4033 83.4034 80.5365 83.4034 77C83.4034 73.4635 80.5366 70.5967 77.0001 70.5967C73.4637 70.5967 70.5968 73.4635 70.5968 77C70.5968 80.5365 73.4637 83.4033 77.0001 83.4033Z" fill="white"/>
</svg>
