<svg width="64" height="64" viewBox="0 0 64 64" fill="none" xmlns="http://www.w3.org/2000/svg">
<g clip-path="url(#clip0_303_98)">
<rect width="64" height="64" fill="white"/>
<circle cx="32" cy="32" r="31.4921" fill="white" stroke="#222222" stroke-width="1.01587"/>
<circle cx="32.1393" cy="32.1393" r="28.6314" fill="white" stroke="#222222" stroke-width="1.01587"/>
<circle cx="32.3451" cy="32.3451" r="25.8372" fill="white" stroke="#222222" stroke-width="1.01587"/>
<path fill-rule="evenodd" clip-rule="evenodd" d="M22.6882 46.4732L27.8724 37.8442C27.5807 37.6686 27.3012 37.4749 27.0354 37.2646L22.6882 44.5006V32.0158H24.0651C24.0229 31.6831 24.0011 31.3441 24.0011 30.9999H22.6882H21.6724V32.0158V46.1915V48.1642L22.6882 46.4732Z" fill="#AC0116"/>
<path fill-rule="evenodd" clip-rule="evenodd" d="M31.6528 37.2897C34.766 37.2897 37.2897 34.766 37.2897 31.6528C37.2897 28.5396 34.766 26.0159 31.6528 26.0159C28.5396 26.0159 26.0159 28.5396 26.0159 31.6528C26.0159 34.766 28.5396 37.2897 31.6528 37.2897ZM31.6528 38.3056C35.327 38.3056 38.3056 35.327 38.3056 31.6528C38.3056 27.9786 35.327 25 31.6528 25C27.9786 25 25 27.9786 25 31.6528C25 35.327 27.9786 38.3056 31.6528 38.3056Z" fill="#222222"/>
<path fill-rule="evenodd" clip-rule="evenodd" d="M31.6529 35.3604C33.7005 35.3604 35.3605 33.7005 35.3605 31.6528C35.3605 29.6051 33.7005 27.9452 31.6529 27.9452C29.6052 27.9452 27.9452 29.6051 27.9452 31.6528C27.9452 33.7005 29.6052 35.3604 31.6529 35.3604ZM31.6529 36.3763C34.2616 36.3763 36.3763 34.2615 36.3763 31.6528C36.3763 29.0441 34.2616 26.9293 31.6529 26.9293C29.0441 26.9293 26.9294 29.0441 26.9294 31.6528C26.9294 34.2615 29.0441 36.3763 31.6529 36.3763Z" fill="#222222"/>
<path fill-rule="evenodd" clip-rule="evenodd" d="M31.6528 33.298C32.5614 33.298 33.298 32.5614 33.298 31.6528C33.298 30.7441 32.5614 30.0075 31.6528 30.0075C30.7441 30.0075 30.0075 30.7441 30.0075 31.6528C30.0075 32.5614 30.7441 33.298 31.6528 33.298ZM31.6528 34.3139C33.1225 34.3139 34.3139 33.1225 34.3139 31.6528C34.3139 30.1831 33.1225 28.9917 31.6528 28.9917C30.1831 28.9917 28.9917 30.1831 28.9917 31.6528C28.9917 33.1225 30.1831 34.3139 31.6528 34.3139Z" fill="#222222"/>
</g>
<defs>
<clipPath id="clip0_303_98">
<rect width="64" height="64" fill="white"/>
</clipPath>
</defs>
</svg>
